<?xml version="1.0" standalone="no"?>
<!DOCTYPE svg PUBLIC "-//W3C//DTD SVG 20010904//EN"
 "http://www.w3.org/TR/2001/REC-SVG-20010904/DTD/svg10.dtd">
<svg version="1.0" xmlns="http://www.w3.org/2000/svg"
 width="500.000000pt" height="500.000000pt" viewBox="0 0 500.000000 500.000000"
 preserveAspectRatio="xMidYMid meet">
<metadata>
Created by potrace 1.11, written by Peter Selinger 2001-2013
</metadata>
<g transform="translate(0.000000,500.000000) scale(0.100000,-0.100000)"
fill="#000000" stroke="none">
<path d="M2062 4678 c-34 -10 -62 -23 -62 -28 0 -6 -3 -9 -7 -8 -21 7 -129
-105 -143 -148 -7 -19 -15 -34 -19 -34 -4 0 -8 -6 -9 -12 0 -7 -4 -26 -8 -43
-11 -45 -8 -189 5 -193 6 -2 11 -12 11 -22 0 -25 44 -103 80 -141 25 -27 106
-77 133 -85 15 -3 27 -10 27 -14 0 -5 8 -9 18 -9 9 0 52 -3 95 -7 56 -4 77 -3
77 6 0 6 4 9 9 6 5 -3 25 1 45 9 20 8 36 12 36 8 0 -5 4 -3 8 3 4 5 24 21 46
34 53 32 77 57 113 116 28 46 40 72 51 114 9 33 9 135 0 169 -16 61 -54 134
-90 174 -19 20 -37 37 -41 37 -3 0 -18 11 -33 25 -38 35 -144 66 -219 64 -34
-1 -89 -10 -123 -21z"/>
<path d="M1215 4219 c-37 -6 -152 -75 -188 -110 -17 -18 -37 -75 -37 -107 0
-28 35 -103 60 -130 10 -10 36 -48 60 -85 23 -37 47 -67 53 -67 5 0 8 -3 4 -6
-6 -6 41 -76 56 -82 4 -2 7 -9 7 -16 0 -7 9 -21 20 -31 11 -10 20 -23 20 -30
0 -6 8 -20 18 -31 9 -10 40 -53 68 -94 124 -185 188 -276 198 -282 7 -5 7 -8
1 -8 -6 0 -6 -3 1 -8 10 -6 78 -104 176 -251 20 -31 42 -61 48 -68 5 -7 10
-16 10 -22 0 -5 4 -11 8 -13 9 -3 129 -174 147 -209 5 -11 13 -19 17 -19 5 0
8 -5 8 -11 0 -6 14 -28 30 -49 17 -21 30 -42 30 -48 0 -5 7 -13 16 -16 9 -4
14 -9 11 -12 -3 -4 3 -16 14 -28 12 -11 32 -41 46 -66 15 -25 31 -49 37 -55 6
-5 38 -50 70 -100 33 -49 63 -91 68 -93 4 -2 8 -10 8 -18 0 -8 5 -14 12 -14 6
0 9 -3 6 -6 -4 -3 2 -14 12 -24 11 -11 17 -28 15 -40 -4 -22 -113 -208 -175
-300 -20 -30 -40 -63 -43 -73 -4 -9 -27 -50 -53 -90 -26 -39 -54 -83 -62 -97
-9 -14 -17 -27 -17 -30 0 -3 -8 -16 -17 -30 -9 -14 -22 -37 -29 -52 -6 -15
-16 -25 -20 -22 -5 3 -9 0 -9 -6 0 -10 -71 -136 -110 -195 -8 -12 -33 -53 -54
-91 -22 -38 -45 -72 -50 -76 -6 -4 -7 -8 -3 -8 5 0 -5 -17 -22 -37 -16 -20
-28 -40 -25 -45 3 -4 1 -8 -4 -8 -5 0 -14 -11 -20 -24 -6 -13 -23 -28 -39 -33
-16 -5 -325 -9 -743 -8 -691 2 -717 1 -763 -18 -74 -31 -87 -64 -84 -220 2
-141 12 -166 78 -199 32 -17 167 -18 2396 -18 1478 0 2371 4 2387 10 34 12 88
70 82 87 -3 7 -1 13 4 13 12 0 4 88 -9 104 -6 7 -8 16 -4 19 3 4 2 7 -4 7 -9
0 -83 102 -83 116 0 7 -61 97 -70 104 -4 3 -13 16 -20 30 -7 14 -32 54 -55 90
-23 36 -82 126 -129 200 -48 74 -110 168 -137 207 -27 40 -49 75 -49 77 0 9
-83 131 -94 138 -6 4 -7 8 -3 8 4 0 3 6 -3 13 -6 6 -26 37 -45 67 -19 30 -39
61 -45 68 -6 6 -8 12 -5 12 3 0 -4 10 -15 23 -12 12 -28 34 -35 48 -11 21
-178 280 -225 349 -6 8 -59 92 -119 185 -60 94 -114 176 -121 183 -6 6 -7 12
-3 12 4 0 3 4 -3 8 -13 8 -84 117 -84 129 0 4 -13 22 -29 39 -16 16 -32 40
-35 52 -4 12 -12 22 -17 22 -5 0 -8 3 -7 8 3 9 -52 96 -63 100 -5 2 -9 10 -9
18 0 8 -4 14 -10 14 -5 0 -10 5 -10 10 0 6 -27 51 -60 102 -33 50 -60 93 -60
95 0 16 -78 74 -106 79 -42 8 -104 -3 -104 -18 0 -6 -3 -9 -6 -5 -7 7 -54 -33
-54 -46 0 -6 -11 -25 -25 -43 -14 -18 -25 -36 -25 -39 0 -4 -15 -30 -33 -58
-18 -29 -51 -81 -72 -117 -21 -36 -43 -68 -48 -71 -5 -3 -8 -9 -8 -13 1 -3
-14 -30 -32 -59 -18 -28 -46 -76 -62 -104 -15 -29 -32 -53 -37 -53 -4 0 -8 -5
-8 -11 0 -5 -11 -27 -25 -47 -14 -20 -25 -32 -25 -27 0 6 -4 4 -9 -4 -15 -23
-62 4 -91 51 -14 22 -29 46 -35 52 -5 6 -16 23 -24 38 -8 15 -22 36 -31 45
-26 29 -80 111 -80 122 0 6 -3 11 -7 11 -5 0 -24 25 -43 55 -19 30 -38 54 -42
55 -5 0 -8 4 -8 10 0 11 -41 72 -64 95 -9 9 -16 22 -16 30 0 7 -3 15 -7 17 -5
2 -33 39 -63 83 -30 44 -58 82 -62 83 -4 2 -8 8 -8 13 0 11 -42 72 -52 77 -5
2 -8 10 -8 18 0 8 -3 14 -8 14 -4 0 -12 9 -17 19 -6 11 -56 86 -112 167 -57
80 -103 150 -103 155 0 5 -4 9 -10 9 -5 0 -10 7 -10 15 0 8 -4 15 -10 15 -5 0
-10 6 -10 14 0 8 -4 16 -8 18 -5 2 -31 37 -58 78 -27 41 -51 77 -54 80 -13 13
-60 79 -60 85 0 4 -8 17 -17 30 -10 12 -25 33 -33 45 -8 12 -20 28 -25 34 -6
6 -25 35 -44 64 -52 82 -107 114 -176 101z m2026 -1971 c21 -12 41 -30 45 -40
3 -10 10 -18 15 -18 5 0 9 -4 9 -10 0 -5 20 -39 45 -76 25 -36 45 -67 45 -69
0 -2 20 -33 45 -68 25 -36 45 -68 45 -72 0 -6 41 -68 73 -110 23 -30 87 -137
87 -145 0 -4 4 -10 8 -12 10 -3 89 -124 119 -180 11 -21 23 -35 27 -31 3 3 6
-1 6 -10 0 -9 5 -17 10 -17 6 0 10 -5 10 -10 0 -15 82 -140 92 -140 4 0 8 -6
8 -13 0 -11 84 -147 118 -192 32 -42 52 -75 46 -75 -5 0 -3 -5 4 -12 17 -17
15 -70 -4 -117 -11 -29 -27 -45 -62 -63 -44 -23 -56 -25 -189 -24 -78 1 -144
4 -146 6 -6 7 -104 150 -171 250 -31 47 -60 90 -64 95 -5 6 -17 24 -28 40 -10
17 -24 34 -31 38 -7 4 -13 12 -13 17 0 16 -70 120 -81 120 -6 0 -7 5 -4 10 3
6 2 10 -3 10 -5 0 -15 14 -22 30 -7 17 -16 30 -21 30 -4 0 -11 9 -14 20 -3 11
-12 26 -18 33 -7 7 -16 20 -22 29 -5 8 -30 44 -55 79 -24 35 -45 67 -45 71 0
3 -10 18 -22 32 -13 14 -23 29 -24 34 0 4 -8 16 -17 27 -10 11 -38 50 -62 88
-25 37 -49 67 -53 67 -5 0 -5 5 -2 10 3 6 1 10 -4 10 -6 0 -11 7 -11 15 0 8
-4 15 -9 15 -18 0 -18 38 0 61 10 13 19 30 19 37 0 6 5 12 10 12 6 0 10 7 10
15 0 8 4 15 9 15 5 0 13 10 17 23 3 12 13 30 22 40 9 10 17 25 18 34 2 9 6 19
11 22 5 3 16 18 25 32 37 58 131 75 199 37z m-562 -774 c19 -3 67 -60 106
-125 19 -31 129 -194 135 -199 13 -11 140 -203 140 -211 0 -5 4 -9 10 -9 14 0
50 -75 50 -104 0 -14 -11 -37 -24 -53 l-24 -27 -343 -1 c-295 -1 -348 1 -374
14 -63 33 -97 94 -87 156 4 30 29 86 42 95 4 3 22 32 41 65 18 33 49 85 69
115 19 30 37 60 40 65 3 6 28 48 55 94 52 87 92 134 106 126 4 -3 10 -1 14 5
4 6 12 7 18 3 7 -4 18 -8 26 -9z"/>
</g>
</svg>
