<?xml version="1.0" encoding="UTF-8"?>
<svg width="15px" height="20px" viewBox="0 0 15 20" version="1.1" xmlns="http://www.w3.org/2000/svg" xmlns:xlink="http://www.w3.org/1999/xlink">
    <!-- Generator: Sketch 57.1 (83088) - https://sketch.com -->
    <title>leaf</title>
    <desc>Created with Sketch.</desc>
    <g id="Page-1" stroke="none" stroke-width="1" fill="none" fill-rule="evenodd">
        <g id="Series-Page" transform="translate(-400.000000, -247.000000)" fill="#69A259" fill-rule="nonzero">
            <g id="Series" transform="translate(125.000000, 237.000000)">
                <g id="Card---Hover">
                    <g id="leaf" transform="translate(275.000000, 10.000000)">
                        <path d="M12.7319942,0 C12.7319942,0 11.0120361,1.59647147 9.15187599,2.24011636 C-4.62314342,7.00693337 1.18636892,16.2961311 1.37589567,16.3267445 C1.37589567,16.3267445 2.14833375,15.0398175 3.19177347,14.305783 C9.81303961,9.64886986 11.1587971,4.28853572 11.1587971,4.28853572 C11.1587971,4.28853572 9.67298924,10.7387317 3.78238113,14.7522176 C2.48136095,15.638195 1.60041606,17.8196597 1.22750446,20 C1.22750446,20 2.14973653,19.6435198 2.5463058,19.546964 C2.70095265,18.5814785 3.02427414,17.6569803 3.5709028,16.8311053 C11.8037339,17.7688791 14.5001396,11.4221306 14.8523887,9.20907305 C15.6837813,3.98229206 12.7319942,0 12.7319942,0 Z" id="Path"></path>
                    </g>
                </g>
            </g>
        </g>
    </g>
</svg>